<svg width="132" height="22" viewBox="0 0 132 22" fill="none" xmlns="http://www.w3.org/2000/svg"><g clip-path="url(#a)" fill="#fff"><path d="M124.354 12.14c.14-1.124.756-1.566 2.075-1.566h.525c1.318 0 1.934.442 2.075 1.565h-4.675Zm2.864-3.657h-1.059c-2.654 0-4.183 1.53-4.183 4.184v.926c0 2.653 1.529 4.165 4.183 4.165h4.411a.271.271 0 0 0 .241-.265V15.93c0-.14.017-.263-.124-.263h-4.265c-1.266 0-1.972-.515-2.039-1.548h6.765a.27.27 0 0 0 .264-.263v-1.194c0-2.654-1.546-4.183-4.2-4.183M82.348 12.14c.14-1.124.755-1.566 2.074-1.566h.527c1.318 0 1.933.442 2.074 1.565h-4.675Zm2.865-3.657h-1.055c-2.653 0-4.182 1.53-4.182 4.184v.926c0 2.653 1.529 4.165 4.181 4.165h4.414a.273.273 0 0 0 .241-.265V15.93c0-.14.017-.263-.124-.263h-4.267c-1.265 0-1.972-.515-2.039-1.548h6.766a.27.27 0 0 0 .263-.263v-1.194c0-2.654-1.546-4.183-4.199-4.183M61.463 12.14c.14-1.124.756-1.566 2.074-1.566h.527c1.318 0 1.933.442 2.074 1.565h-4.675Zm2.864-3.657h-1.054c-2.654 0-4.182 1.53-4.182 4.184v.926c0 2.653 1.528 4.165 4.182 4.165h4.411a.273.273 0 0 0 .241-.265V15.93c0-.14.017-.263-.124-.263h-4.27c-1.264 0-1.97-.515-2.037-1.548h6.765a.27.27 0 0 0 .264-.263v-1.194c0-2.654-1.546-4.183-4.2-4.183m-13.805 9.283c.142 0 .177-.107.177-.248v-4.823c0-1.514.313-2.096 2.079-2.096h.525c1.796 0 2.095.582 2.095 1.83v5.086c0 .142.011.248.154.248h2.05c.14 0 .156-.108.156-.248v-5.085c0-2.605-1.41-3.926-4.19-3.926h-1.055a6.015 6.015 0 0 0-1.82.434v-.313c0-.14 0-.266-.144-.266h-2.063c-.141 0-.143.124-.143.266v8.892c0 .142.01.248.148.248l2.03.001ZM32.436 8.347h-1.059a5.332 5.332 0 0 0-1.825.317V5.223c0-.103-.124-.153-.248-.153h-1.88c-.124 0-.236.049-.24.148v6.143h2.519c.26-.71.868-.923 1.937-.923h.53c1.497 0 2.097.582 2.097 2.095v1.058c0 1.514-.602 2.167-2.097 2.167h-.53c-1.514 0-2.096-.652-2.096-2.167v-.728h-2.356v4.777c0 .124.108.124.232.124h6.025c1.984-.057 3.16-1.87 3.16-4.168v-1.058c0-2.66-1.515-4.192-4.17-4.192M75.98 17.98l-3.157-.01c-1.736 0-3.028-1.117-3.146-2.657a.247.247 0 0 1 .248-.265l1.879.006c.144 0 .213.124.265.268.16.481.797.537 1.008.537l2.643.01c.248 0 1.046-.142 1.048-.868.002-.727-.797-.744-1.043-.744l-2.893-.014c-1.846-.007-3.174-1.145-3.167-2.815.006-1.67 1.341-2.852 3.165-2.845l2.783.01c1.648 0 2.89 1.007 3.112 2.442a.26.26 0 0 1-.164.247.257.257 0 0 1-.103.018h-1.846a.566.566 0 0 1-.387-.268 1.172 1.172 0 0 0-.885-.321l-2.233-.008c-.248 0-1.08 0-1.083.723 0 .743.832.715 1.059.715l2.912.01c1.839.008 3.147 1.18 3.141 2.866-.006 1.685-1.322 2.976-3.162 2.97M96.29 8.48h-2.33c-1.83 0-3.162 1.212-3.162 2.882V17.5c0 .139 0 .265.138.265H93c.14 0 .157-.124.157-.265v-6.158c0-.72.808-.758 1.056-.758h2.078c.106 0 .19-.021.19-.137V8.632c0-.117-.084-.148-.19-.155m11.266 9.02c0 .14.001.265.138.265h2.064c.142 0 .158-.124.158-.267v-4.629h-2.36v4.63Zm2.225-8.924h-2.063c-.142 0-.157.124-.157.265v2.528h2.356V8.838c0-.139 0-.265-.139-.265m-65.133 6.302c0 .723-.074.794-1.037.794h-2.621c-.248 0-1.058-.07-1.058-.794v-.261c0-.744.81-.776 1.058-.776h2.621c.248 0 1.037.035 1.037.776v.261Zm2.356-2.232c0-2.656-1.531-4.17-4.19-4.17h-3.795a.256.256 0 0 0-.248.264v1.565a.256.256 0 0 0 .248.264h3.537c1.177 0 1.793.372 2.006 1.25a4.079 4.079 0 0 0-.685-.073h-3.15c-1.814 0-3.15 1.197-3.15 2.871v.262c0 1.674 1.337 2.89 3.15 2.89h6.133a.125.125 0 0 0 .124-.071.48.48 0 0 0 .028-.196l-.008-4.856Zm59.359-4.172h-1.984c-.141 0-.212.144-.265.309 0 0-2.011 5.778-2.071 5.778-.059 0-2.072-5.778-2.072-5.778-.053-.165-.124-.31-.265-.31H97.72c-.142 0-.195.145-.124.31 0 0 2.745 7.602 3.316 8.87v.014c.035.077.077.091.101.093h2.033c.026 0 .067-.016.103-.094.556-1.227 3.323-8.887 3.323-8.887.07-.165.018-.309-.124-.309m7.775 2.893c.411-.527.688-.62 1.819-.637h.531c.483-.044.97.038 1.412.238.154.112.29.247.401.401.106.144.124.27.27.27h2.219c.146 0 .195-.13.146-.27a4.06 4.06 0 0 0-.293-.657c-.729-1.4-2.052-2.136-3.888-2.143h-1.066c-2.01 0-3.655.868-4.074 2.796l2.523.002Zm6.64 3.448h-2.08c-.141 0-.198.124-.267.268-.302.553-.909.785-1.87.785h-.531c-1.532 0-2.12-.588-2.12-2.118v-.877h-2.387v.877c0 2.707 1.532 4.234 4.239 4.234h1.066c2.207 0 3.652-1.032 4.093-2.901.035-.14 0-.268-.144-.268M10.884 22a10.882 10.882 0 0 0 10.77-9.341l-21.54-.002A10.881 10.881 0 0 0 10.884 22ZM6.196 11.591c-.887 0-1.748-.139-1.87-.547-.102-.343.314-.646.689-.88a39.296 39.296 0 0 1 4.912-2.251 4.257 4.257 0 0 1 2.472-.158c.626.134 5.913 1.105 9.273 1.72a10.881 10.881 0 1 0-21.58 2.813h21.633c.025-.223.042-.449.053-.675L6.196 11.59Z"/></g><defs><clipPath id="a"><path fill="#fff" d="M0 0h132v22H0z"/></clipPath></defs></svg>