<svg width="132" height="22" viewBox="0 0 132 22" fill="none" xmlns="http://www.w3.org/2000/svg">
<g clip-path="url(#clip0_15180_232)">
<path d="M124.354 12.1394C124.494 11.0158 125.11 10.5745 126.429 10.5745H126.954C128.272 10.5745 128.888 11.0158 129.029 12.1394H124.354ZM127.218 8.48348H126.159C123.505 8.48348 121.976 10.0127 121.976 12.6666V13.5932C121.976 16.2459 123.505 17.7575 126.159 17.7575H130.57C130.636 17.7498 130.696 17.7188 130.74 17.6703C130.784 17.6218 130.809 17.559 130.811 17.4934V16.3005V15.9285C130.811 15.7885 130.828 15.6657 130.687 15.6657H126.422C125.156 15.6657 124.45 15.1509 124.383 14.118H131.148C131.218 14.1164 131.284 14.0882 131.333 14.0393C131.382 13.9904 131.41 13.9245 131.412 13.8552V12.661C131.412 10.0071 129.866 8.47786 127.212 8.47786" fill="white"/>
<path d="M82.3483 12.1394C82.4883 11.0159 83.1034 10.5745 84.422 10.5745H84.9488C86.267 10.5745 86.8821 11.0159 87.0226 12.1394H82.3483ZM85.2129 8.48348H84.1575C81.5048 8.48348 79.9756 10.0127 79.9756 12.6666V13.5932C79.9756 16.2459 81.5048 17.7575 84.1575 17.7575H88.5714C88.6366 17.7498 88.6968 17.7188 88.741 17.6703C88.7852 17.6218 88.8105 17.559 88.8122 17.4934V16.3005V15.9285C88.8122 15.7885 88.8294 15.6657 88.6882 15.6657H84.4208C83.156 15.6657 82.449 15.1509 82.382 14.118H89.1484C89.2176 14.1164 89.2835 14.0882 89.3325 14.0392C89.3814 13.9903 89.4096 13.9244 89.4113 13.8552V12.661C89.4113 10.0071 87.8648 8.47787 85.2121 8.47787" fill="white"/>
<path d="M61.4629 12.1394C61.6029 11.0159 62.2193 10.5745 63.5366 10.5745H64.0635C65.3816 10.5745 65.9968 11.0159 66.1384 12.1394H61.4629ZM64.3275 8.48348H63.2734C60.6194 8.48348 59.0914 10.0127 59.0914 12.6666V13.5932C59.0914 16.2459 60.6194 17.7575 63.2734 17.7575H67.6845C67.7497 17.7498 67.8099 17.7188 67.8541 17.6703C67.8983 17.6218 67.9236 17.559 67.9252 17.4934V16.3005V15.9285C67.9252 15.7885 67.9425 15.6657 67.8013 15.6657H63.5318C62.267 15.6657 61.5612 15.1509 61.4942 14.118H68.2591C68.3284 14.1164 68.3944 14.0882 68.4436 14.0393C68.4927 13.9904 68.5212 13.9245 68.5231 13.8552V12.661C68.5231 10.0071 66.9767 8.47787 64.3227 8.47787" fill="white"/>
<path d="M50.5178 17.7623C50.6602 17.7623 50.6951 17.6555 50.6951 17.5143V12.6911C50.6951 11.1768 51.0077 10.5953 52.7736 10.5953H53.2993C55.0949 10.5953 55.3939 11.1772 55.3939 12.4259V17.5107C55.3939 17.6531 55.4051 17.7587 55.5476 17.7587H57.5976C57.7377 17.7587 57.7537 17.6507 57.7537 17.5107V12.4255C57.7537 9.82129 56.3449 8.50034 53.5633 8.50034H52.5092C51.8834 8.54919 51.2692 8.69569 50.6887 8.9345V8.62072C50.6887 8.48068 50.6887 8.35548 50.5446 8.35548H48.4821C48.3409 8.35548 48.3385 8.47947 48.3385 8.62072V17.5127C48.3385 17.6551 48.3485 17.7607 48.4874 17.7607L50.5178 17.7623Z" fill="white"/>
<path d="M32.436 8.34665H31.3771C30.7548 8.34513 30.137 8.45255 29.5518 8.66405V5.22282C29.5518 5.1197 29.4278 5.07034 29.3038 5.07034H27.4239C27.2999 5.07034 27.1883 5.1189 27.1831 5.21801V11.3605H29.703C29.9635 10.6511 30.571 10.4376 31.6403 10.4376H32.17C33.6667 10.4376 34.267 11.0195 34.267 12.5334V13.5911C34.267 15.1055 33.6651 15.758 32.17 15.758H31.6403C30.126 15.758 29.5445 15.1055 29.5445 13.5911V12.8629H27.1883V17.6399C27.1883 17.7639 27.2963 17.7639 27.4203 17.7639H33.4448C35.429 17.7069 36.6059 15.8936 36.6059 13.5956V12.5378C36.6059 9.87787 35.0904 8.34625 32.4352 8.34625" fill="white"/>
<path d="M75.9795 17.9806L72.8232 17.9693C71.0869 17.9693 69.7949 16.853 69.6769 15.313C69.6745 15.279 69.6792 15.2449 69.6906 15.2128C69.702 15.1807 69.7199 15.1512 69.7431 15.1264C69.7664 15.1015 69.7946 15.0816 69.8258 15.0681C69.8571 15.0546 69.8908 15.0477 69.9249 15.0477L71.8036 15.0538C71.9476 15.0538 72.0171 15.1777 72.0688 15.3218C72.2293 15.8033 72.8661 15.8587 73.0772 15.8587L75.7199 15.8687C75.9679 15.8687 76.7664 15.7275 76.768 15.0008C76.7696 14.2741 75.9707 14.2568 75.7247 14.2568L72.8316 14.2432C70.9858 14.2356 69.658 13.0984 69.6645 11.4279C69.6709 9.75749 71.0063 8.57578 72.8304 8.583L75.6132 8.59303C77.2612 8.59303 78.5022 9.6002 78.7245 11.0347C78.7255 11.07 78.7193 11.105 78.7063 11.1378C78.6932 11.1705 78.6736 11.2002 78.6485 11.2251C78.6235 11.2499 78.5937 11.2694 78.5609 11.2823C78.528 11.2952 78.4929 11.3012 78.4577 11.2999H76.6119C76.532 11.2857 76.456 11.2544 76.3892 11.2082C76.3225 11.1619 76.2665 11.1018 76.2251 11.0319C76.1078 10.92 75.9684 10.8337 75.816 10.7784C75.6636 10.7232 75.5013 10.7002 75.3395 10.7109L73.1073 10.7033C72.8593 10.7033 72.0271 10.7033 72.0239 11.4255C72.0239 12.1695 72.8561 12.141 73.0828 12.141L75.9948 12.151C77.8337 12.1586 79.1423 13.3315 79.1362 15.0168C79.1302 16.7021 77.8141 17.9934 75.9739 17.9862" fill="white"/>
<path d="M96.2908 8.48068H93.9607C92.1301 8.48068 90.7983 9.69249 90.7983 11.3617V17.501C90.7983 17.6399 90.7983 17.7663 90.936 17.7663H92.9997C93.1409 17.7663 93.1574 17.6423 93.1574 17.501V11.3429C93.1574 10.6234 93.9647 10.5853 94.2127 10.5853H96.2912C96.3968 10.5853 96.481 10.564 96.481 10.4477V8.63195C96.481 8.51519 96.3968 8.48429 96.2912 8.47707" fill="white"/>
<path d="M107.557 17.4966C107.557 17.6367 107.558 17.7619 107.695 17.7619H109.759C109.901 17.7619 109.917 17.6379 109.917 17.4954V12.8661H107.557V17.4966Z" fill="white"/>
<path d="M109.782 8.57256H107.719C107.577 8.57256 107.562 8.69655 107.562 8.8378V11.3658H109.918V8.8378C109.918 8.69896 109.918 8.57256 109.779 8.57256" fill="white"/>
<path d="M44.6463 14.8752C44.6463 15.5975 44.572 15.6689 43.6094 15.6689H40.9876C40.7396 15.6689 39.9298 15.5995 39.9298 14.8752V14.6136C39.9298 13.8696 40.7408 13.8383 40.9876 13.8383H43.6094C43.8574 13.8383 44.6463 13.8732 44.6463 14.6136V14.8752ZM47.0025 12.643C47.0025 9.98662 45.4709 8.47225 42.8121 8.47225H39.0174C38.9836 8.47323 38.9504 8.48089 38.9196 8.49478C38.8889 8.50867 38.8611 8.52852 38.8381 8.55318C38.815 8.57784 38.7971 8.60683 38.7853 8.63846C38.7735 8.67009 38.7681 8.70375 38.7694 8.73749V10.3024C38.7674 10.3703 38.7924 10.4361 38.8389 10.4856C38.8854 10.5351 38.9495 10.5641 39.0174 10.5664H42.5541C43.731 10.5664 44.3473 10.9384 44.5604 11.8152C44.3343 11.7719 44.1049 11.7479 43.8747 11.7433H40.7247C38.9114 11.7433 37.5748 12.9399 37.5748 14.6144V14.876C37.5748 16.5501 38.9118 17.7651 40.7247 17.7651H46.8584C46.8839 17.7675 46.9094 17.762 46.9316 17.7494C46.9538 17.7368 46.9715 17.7176 46.9824 17.6945C47.005 17.6318 47.0143 17.5651 47.0097 17.4986L47.0025 12.643Z" fill="white"/>
<path d="M106.361 8.47105H104.377C104.236 8.47105 104.165 8.6151 104.112 8.78002C104.112 8.78002 102.101 14.5582 102.041 14.5582C101.982 14.5582 99.9691 8.78002 99.9691 8.78002C99.9157 8.6151 99.8451 8.46984 99.7039 8.46984H97.7196C97.5784 8.46984 97.525 8.6151 97.5956 8.78002C97.5956 8.78002 100.341 16.3823 100.912 17.6507V17.6644C100.947 17.7414 100.989 17.7551 101.013 17.7575H103.046C103.072 17.7575 103.113 17.7414 103.149 17.6632C103.705 16.4365 106.472 8.77601 106.472 8.77601C106.542 8.61109 106.49 8.46704 106.348 8.46704" fill="white"/>
<path d="M114.123 11.3605C114.534 10.8333 114.811 10.7406 115.942 10.7229H116.473C116.956 10.6786 117.443 10.7606 117.885 10.9609C118.039 11.0726 118.175 11.208 118.286 11.3621C118.392 11.5062 118.41 11.6326 118.556 11.6326H120.775C120.921 11.6326 120.97 11.5022 120.921 11.3621C120.843 11.1349 120.745 10.915 120.628 10.7049C119.899 9.30487 118.576 8.56935 116.74 8.56173H115.674C113.664 8.56173 112.019 9.42966 111.6 11.3581L114.123 11.3605ZM120.763 14.8082H118.683C118.542 14.8082 118.485 14.9322 118.416 15.0762C118.114 15.6292 117.507 15.8611 116.546 15.8611H116.015C114.483 15.8611 113.895 15.2732 113.895 13.7428V12.8661H111.508V13.7428C111.508 16.4501 113.04 17.9765 115.747 17.9765H116.813C119.02 17.9765 120.465 16.9449 120.906 15.0758C120.941 14.9358 120.906 14.8078 120.762 14.8078" fill="white"/>
<path d="M10.8836 22C13.5024 21.9995 16.0331 21.0547 18.0115 19.3389C19.9898 17.6231 21.2831 15.2514 21.6539 12.659L0.114136 12.6566C0.48424 15.2493 1.77709 17.6216 3.75536 19.3379C5.73364 21.0542 8.26459 21.9994 10.8836 22Z" fill="white"/>
<path d="M6.19572 11.5913C5.30893 11.5913 4.44823 11.4524 4.32664 11.0443C4.22352 10.7009 4.64043 10.3983 5.01481 10.164C6.59864 9.3018 8.23994 8.54966 9.92706 7.91289C10.7171 7.6165 11.5775 7.56161 12.3988 7.7552C13.0252 7.88922 18.3118 8.86027 21.6716 9.47541C21.4884 8.05726 21.0275 6.68912 20.3152 5.44923C19.6029 4.20934 18.6532 3.12201 17.5204 2.24941C16.3876 1.37681 15.0938 0.736068 13.7132 0.363808C12.3326 -0.00845184 10.8921 -0.104924 9.4742 0.0799087C8.05626 0.264741 6.68867 0.727253 5.44961 1.441C4.21055 2.15474 3.12432 3.10572 2.25305 4.23955C1.38177 5.37339 0.742536 6.66785 0.371885 8.0489C0.00123462 9.42996 -0.0935578 10.8705 0.0929269 12.2883H21.725C21.7498 12.0652 21.7671 11.8392 21.7783 11.6125L6.19572 11.5913Z" fill="white"/>
</g>
<defs>
<clipPath id="clip0_15180_232">
<rect width="132" height="22" fill="white"/>
</clipPath>
</defs>
</svg>
