<svg width="22" height="30" viewBox="0 0 22 30" fill="none" xmlns="http://www.w3.org/2000/svg">
<path d="M2.77268 0.581285C2.57331 0.439335 2.33872 0.354998 2.0946 0.337514C1.85049 0.320029 1.60627 0.370072 1.3887 0.482159C1.17114 0.594247 0.988622 0.764054 0.861149 0.972977C0.733676 1.1819 0.666166 1.42188 0.666016 1.66662V28.3333C0.666166 28.578 0.733676 28.818 0.861149 29.0269C0.988622 29.2358 1.17114 29.4057 1.3887 29.5177C1.60627 29.6298 1.85049 29.6799 2.0946 29.6624C2.33872 29.6449 2.57331 29.5606 2.77268 29.4186L21.4394 16.0853C21.6122 15.9619 21.7531 15.7991 21.8503 15.6103C21.9475 15.4216 21.9982 15.2123 21.9982 15C21.9982 14.7876 21.9475 14.5784 21.8503 14.3896C21.7531 14.2008 21.6122 14.038 21.4394 13.9146L2.77268 0.581285Z" fill="white"/>
</svg>
